<svg id="Layer_1" data-name="Layer 1" xmlns="http://www.w3.org/2000/svg" width="4in" height="4in" viewBox="0 0 288 288"><title>logo-portfolio</title><path d="M252.3,171.9c.1-1.3-.1.4-.8,1.8A14.2,14.2,0,0,0,252.3,171.9Z"/><path d="M251.5,173.7a7.6,7.6,0,0,1-.8,1.1A5.2,5.2,0,0,0,251.5,173.7Z"/><path d="M241.2,181c1.4-.6,2.9-1.2,4.2-1.9a10.5,10.5,0,0,0,2.9-2.3,42.8,42.8,0,0,1-4.2,2.6A12.8,12.8,0,0,0,241.2,181Z"/><path d="M245.4,179.5l.3-.4-2.2,1.5Z"/><path d="M247.2,178.7h-.4a21.2,21.2,0,0,1-3.6,2.1A22.4,22.4,0,0,0,247.2,178.7Z"/><path d="M231.2,182.4l3-.3c2.8,0-1.8.6.1.6a5.9,5.9,0,0,0,2.6-.6c.4-.3.9-.4,3.2-1l-3.7.6c-1.7.3-3.3.3-3,.1C229.5,182,233.2,182.1,231.2,182.4Z"/><path d="M54.9,188.2l-.4-.2Z"/><path d="M53.6,176.8l1.4-1.5a3.4,3.4,0,0,0-.6.6Z"/><path d="M86.7,188l2-.4Z"/><path d="M109.8,72.9a.4.4,0,0,0-.1.3h.1l.3-.5Z"/><path d="M82.9,128.4l1.1-.9.5-.4h.3l.4-.3-.4.2-.2.2-.4.2-.6.5A1.4,1.4,0,0,0,82.9,128.4Z"/><path d="M103.1,189.6l-.8-.3,1,.5h-.2Z"/><path d="M41.8,185.8l1.3-.5Z"/><path d="M187,187a7.9,7.9,0,0,0-2.2-.7Z"/><path d="M168.6,185.6h0Z"/><path d="M157.6,189.9h0Z"/><path d="M184.8,186.3c-1.4-.6-1.8-1.3-3.9-1h.4a20.3,20.3,0,0,0-4.3-.3l.4.2a14.5,14.5,0,0,1,3,.4Z"/><path d="M55.1,188.1c.2.2,1.4.4,0,0Z"/><path d="M70.8,189.9h0Z"/><path d="M127.4,187.4h0Z"/><path d="M67.8,189.7h0Z"/><path d="M110.4,190.7h0Z"/><path d="M75.7,82.6a27.2,27.2,0,0,1-1.6,2.5c-.9,2.4,2.5-4.4,1.1-1.1a27.2,27.2,0,0,0,1.2-2.5l-1.1,1.2C74.4,84.7,76.1,81.5,75.7,82.6Z"/><path d="M119.5,61.8l-.3.4c.4-.2.3.1,1.4-1.5s-1.1.4.2-2.2l-1.2,1.8C120.5,59.4,120,60.5,119.5,61.8Z"/><path d="M119.6,60.3h-.1l-.3.3-.6,1Z"/><path d="M56.6,117l-.9,1Z"/><path d="M83.9,134.6l-.7,1.2A5.7,5.7,0,0,0,83.9,134.6Z"/><path d="M100.5,82.4l-1.1.8-.7.6Z"/><path d="M95.1,88.7c.6-1-.7.5-2.6,1.3l-1.6,1.1A39.2,39.2,0,0,0,95.1,88.7Z"/><path d="M76.5,81.4Z"/><path d="M50.2,117.5l-.6.6Z"/><path d="M113,69.1l-2.3,2.7-2.4,2.5,1.5-1.4C110.3,72.1,112.6,70,113,69.1Z"/><path d="M117.3,67.4l.6-.4c1.7-3,3.7-6.1,5.4-9.1a48.2,48.2,0,0,0,4.2-8.6L122.4,47l-.2.7a27,27,0,0,0-2.1,3.8c-.4.9-.7,1.6-.9,2.2a12.1,12.1,0,0,1-.7,2,16.7,16.7,0,0,1-2.3,3.3h.2a75,75,0,0,1-4.8,6.7c-1.8,2.1-3.5,4.2-5.5,6.2A109.5,109.5,0,0,1,93.5,82.7a124,124,0,0,1-14,9.1l-1.7,1-1.9,1-3.6,1.9L69.6,97l-1.7.8-1.9.9-1.8.8-1.9.8-3.8,1.6.3,1.3v.7c0,.2-.1.4-.1.6v.5h.1c.1-.2.2-.3.4,0l.5.8a17.9,17.9,0,0,1,.9,2.1l1.1-.4H63l1.9-.3h2.4l3.5.5.8.2h.6a2.8,2.8,0,0,1-.1.6l-.5,1.2-.5,1.4-1.2,2.7-1.3,2.7c-1.9,3.6-3.9,7.3-5.7,11.1a49.1,49.1,0,0,0-4.3,12.4l-.3,1.6-.2,1.7a20.5,20.5,0,0,0-.1,3.5c0,1.2.3,2.3.4,3.5a2.9,2.9,0,0,0,.2.9c0,.2.1.4.1.6l.3.7a6.6,6.6,0,0,0,1.7,2.4,5.7,5.7,0,0,0,2.2,1.1l2.3.3a26.9,26.9,0,0,0,3.2-.5,22.9,22.9,0,0,0,5.6-1.8,33.9,33.9,0,0,0,9.6-6.5,63.8,63.8,0,0,0,7.3-8.3l1.6-2.3.8-1.1,1.3-2c1.9-2.8,3.6-5.6,5.4-8.5H98.5l-2-.3a16.7,16.7,0,0,0-3.9-.4H90.9l-1.1.3a2.7,2.7,0,0,0-1.1.6l-3.1,1.8-.3.2-.3.2-.7.4-1.3,1-1.5,1.2c1-1.1,1.2-1.4,1.2-1.5s-.2-.1.2-.4a27.3,27.3,0,0,0-5.3,5.9,33.1,33.1,0,0,0-3.1,6.3c.5-1,1.1-1.9,1.7-2.9-.6,1.5-1.7,3.6-2.3,4.8.1-.6-1,1-.6-.1a23.1,23.1,0,0,1-2.9,6.4,41.8,41.8,0,0,0-2.8,5.3c0,1.5-3.6,9.1-6.3,13.9l-1.8,2.3c2.2-3.1-.4-.2,2.3-4.1-2.4,3.2-4.3,6.3-6.8,9.1.6-.4.6-.1-.3,1.1a11.5,11.5,0,0,1-1.8,1.6l-2,1.8a15.6,15.6,0,0,0,1.6-2c-1.3,1.1-2.1,2.4-3.3,3.5a16.7,16.7,0,0,0-1.9,1.4c-.7.5-1.4.9-1.2.6a18.4,18.4,0,0,1-2.9,2.2,9.4,9.4,0,0,1-3.1.9h1c.1.1-.1.1-.3.2s-1.4.1-1.2.2a5.9,5.9,0,0,0,3.4-.6,5.8,5.8,0,0,1-1.8.4l.7-.2c.9-.3,2.4-1.2,2.1-1.3,1.2-.6.5.1,0,.5s-.5.4-.4.5l1.5-.8c-2.3,1.6-3.8,1.9-5.3,1.8H39l-.7-.4a4.5,4.5,0,0,1-1.4-1.8l.3.8c0,.1-.1,0-.2-.1s-.7-.6-.5,0-.4-1.3-.3-1.5,0-.3.1-.2.3.5.5.2a3,3,0,0,1,.4-1l.3-.2h.2c0-.1.1,0,.2,0a3.3,3.3,0,0,0,1.5.3c1.3.5,1.1.5.9.6s-.6,0-.1.3l-1.1-.3-.7-.3c-.2-.1-.3.1-.4.2l-.3.3a1.8,1.8,0,0,0,.2,1.5c.3.3.5.4.8.2a1,1,0,0,0,.8.5h.9l1.4-.2H39.7c0-.2,0-.2-.2-.3l-.9-.3a2.8,2.8,0,0,1-.1-.9V184c0-.1,0-.2.1-.2H39c-.1.1,0,.2.2.4l.7.3-.3-.3h.6l.4.2,1.8.3,4.7,1.1-3.9-1.4-1.6-.7-1-.4-.8-.3c.4-.1.7,0,1.5.3s1.6.6,2.6.8-.7-.1-.2.1l2.2.5c4.5,1.5-.7.4,3,1.7s3.6.7,5.6,1.4l-.4-.2,1,.3h0l3.6.7a9.9,9.9,0,0,0,2.3.1,12.1,12.1,0,0,0,3,.3,36.6,36.6,0,0,1,6.9.7h-.1l3.9.2c.9,0,1.4.1,1,.2h2.6l2.6-.2-.5.4c4.7-.7,4.2-1,7.2-2.2s3.8-1,5.7-1.4a11.8,11.8,0,0,1,2.6-.2,8.4,8.4,0,0,1,1.8.3l1.4.7-1.4-.9a24.1,24.1,0,0,1,2.6,1.4l2,1.2-.2-.2,1,.5,1.3.6-1.1-.4.3.3a8.3,8.3,0,0,0,3.9.8l4-.3h-1.1c1.8,0,4.4-.1,5-.6a5.8,5.8,0,0,0,1.5-.6l1.3-.3-1.3.3c.8-.3,1.4-.7,1.6-.6l4.1-1.1,2.8-.5h.7c1.5-.1,1.5,0,1.3.1a18.3,18.3,0,0,1,6.2,1.4,32.4,32.4,0,0,1,6.2,3.8c1.1.4-1-1.1-1-1.3l2.5,1.2,3.2,1.3,1.2.5,1.6.5a11.4,11.4,0,0,0,3.7.2c2.4-.3,4.1-.9,3.6-.3,4.8-2.1-1.6.3.7-.9l.5-.2a12.8,12.8,0,0,1-4,1c-.3-.1.7-.5,1.9-.9l3-1.4-.6.8c4-2.2,2.8-2.4,5.2-4.1s2.1-.6,2.2-.5-.2.4.2.5l3.6-1.3v.3l2.7-.8a14.6,14.6,0,0,1,3.5-.4c-1.2.2.1.2,1.2.3s2.2.2.5.3a6,6,0,0,0,2-.1c.5,0,.9-.1,1.3.2s.3-.2-.4-.3H176c-.4-.3.6-.3,2-.2l4.3.6c.1.3-1.5-.1,1,.7a6.7,6.7,0,0,1,3.5,1c.1-.3,2.8,1.1,4.3,1.6-1.6-.6-3.8-1.8-2.7-1.6s2.4.8,5.3,1.7l-2-.8a35.8,35.8,0,0,1,3.5,1.1,11,11,0,0,0,4.3.5,17.3,17.3,0,0,1-3.9.2h3.6a18.7,18.7,0,0,0,4.1-.9l3.1-.5c.3-.3,3.2-1.3,3-1.6,1.8-.7,1.2-.3,0,.3a25.9,25.9,0,0,0-2.9,1.6c4.6-1.6,3.3-2.1,7.7-3.4l-1.3.8a32.3,32.3,0,0,1,4.3-1.7l-1.5.5c.3-.5,1.8-1.2,3.3-1.7s2.8-.9,2.4-1.2l-2,.4a27.3,27.3,0,0,1,7.8-1.5c2,.1-1.3.5-2.4.9,3-.3,2.4-1,6-1.2-1.9,0-1.5-.2-.4-.5l-3.9.2c-1.3.1-2.2.3-1.8.4h.8a12.4,12.4,0,0,1-1.9.5c-2.9.4-1.4-.1-2-.1-2.4.4-2.4.7-2.4.8s0,.3-2.1,1h-.6c-1.9.9-4.8,2.2-5.2,2.8-1.9.5-4.4,2.3-6.5,2.7-.4-.4,1.4-1,3.4-1.8a32.9,32.9,0,0,0,5.5-2.5c-2.2.7,1-1,1.9-1.5-2.3,1-4.4,2.2-6.5,3.3a10.7,10.7,0,0,0-3.8,1.3l.6-.2-2.2,1a5.9,5.9,0,0,1-2,.6c-.4,0,.3-.3.5-.4-2.2.3-1.8.5-3.3.7s1.1-.4-.7-.5a10.9,10.9,0,0,1-3.2-.3l-2.8-1.1c.4.4-1.8-.2-3.5-.7s-3-.8-.8.3a45.6,45.6,0,0,0-5.3-1.3c-.8-.3.2-.3,1.2-.2s2,.1,1.3-.3c1.5.4,2.8,1,4.2,1.5-.2-.4-2.4-1.3-5-1.9s-5.4-.9-6.9-1.3H171l.9.5c-2.3.1-3.2.1-3.3-.1l-3.8,1.1a4.2,4.2,0,0,1,1.5-.7,4.6,4.6,0,0,0-2.8.9l-3.5,1.7,1.1-.8-1.8,1.1-1.5.9a25,25,0,0,0,3.3-1c-2.5,1-4.5,2.2-6.6,3.1a11.9,11.9,0,0,1-6.1,1c.2-.1,1.8-.5,1.3-.5s-4.1-.2-4,0l-1.1-.3a6.4,6.4,0,0,0-1.6-1.2l-1.1-.8c-.9.1-4.4-2.5-5.4-2.8l3,1.9a18,18,0,0,1-4.4-2.2c3.2,1.4-3.2-2.2,1.6.2a4.4,4.4,0,0,0-2.6-1.3l-3.1-.7-1.3-.4-1.3-.2a5.5,5.5,0,0,1,2.3,0l1.5.3-1.9-.4a14,14,0,0,1,5.5,1.7c2.3,1.1,4.4,2.6,6.2,3.4-2.2-1.3-4.3-3-7-4.3a12.5,12.5,0,0,0-4.3-1.2l-1.2-.2h-1.1a8.9,8.9,0,0,0-2.3.1,43,43,0,0,0-8.4,1.9,60.8,60.8,0,0,1-7.4,1.8,12.3,12.3,0,0,1-6.1-.3h0l-.3-.2-1.5-.5a18.9,18.9,0,0,0-3.3-2.4,11.4,11.4,0,0,0-5.4-1.1,6.9,6.9,0,0,1,2,.2c.3.1.3.1.4.3l-.9.3-2.9.3c-.1-.2,1.8-.6-.5-.3,1.2-.1.2.2-1.1.6l-2.7.6a2.6,2.6,0,0,1-1.5.1l1.7-.4h-.9c-.6.1-1,.1,0-.3l-2.7.8c-1.6.2,1-.6.4-.6a22.6,22.6,0,0,1-3,.8l-2.6.7-2.6.4a12.9,12.9,0,0,1-2.9.3c.2-.1.2-.7.2-.5-3.2-.1-7,.3-10.8-.2a21.1,21.1,0,0,1,3.1.3,104.7,104.7,0,0,1-15.8-3.5l-7.4-2.3-1.9-.7-1.6-.5-.7-.3h-.6l-2.6-.3h-.9l-.3.2a4.7,4.7,0,0,0-1,1,5.6,5.6,0,0,0-.3,3.8,7.5,7.5,0,0,0,1.1,3.7,7.3,7.3,0,0,0,2.4,2.2l.8.4.8.2.8.2h.6a11,11,0,0,0,4.9-.9,25.9,25.9,0,0,0,6.8-4.9A76.3,76.3,0,0,0,61.8,173c2-2.9,1.5-1.5,2.6-2.8a45,45,0,0,0,4.3-7.4c1-2,1.9-4.1,3.6-7.4-.3,1-.7,2.7.8,0a5.6,5.6,0,0,1,1-2.8l-.3,1c1-1.5,1.6-3.2,3.3-6.4s2.6-6,3.8-8.6a30.9,30.9,0,0,1,4.3-6.7,7.8,7.8,0,0,1,1.8-1.2c.3-.1.1.1-.1.4s-1.3,1.3-.9,1a7,7,0,0,0-1.9,1.9c-.1.3,0,.3-.2.6a19.9,19.9,0,0,1,2-2.1,3,3,0,0,1,1-.7l.5-.2h.3l.9-.5,1.4-.4h-.6c-.1-.1,0-.2.4-.4h1.1l-.3.4c-.5.8-1.1,1.5-1.4,1.4l-.3.5-1.3,1.9a42.2,42.2,0,0,1-2.7,3.6,42.3,42.3,0,0,1-6.2,6.5,26.1,26.1,0,0,1-7.6,4.7l-1,.4-1,.3-1.1.3-1.1.2-1.1.2H64.2l-.2-.4a6.3,6.3,0,0,1-.3-1.3,30.3,30.3,0,0,1-.2-3.1c-.3-2.3-.1,1.8-.3.5a8.3,8.3,0,0,1,.1-3c0-.2.1-.5.1-.9s.1-.8.2-1.5v1.2a54.4,54.4,0,0,1,3.4-12.4c0,.8,1.8-3,.4.2.8-1.9,3.2-3.5,3.7-5L69,126.5a22.2,22.2,0,0,1,1.1-2.5,39.3,39.3,0,0,0,3-4.6c.6-.4-1,2.5-1.8,4s1-1,1.6-2,1.1-1.9.7-.6c1.7-3.4-.5.4.4-1.8l1.5-2.9-1.2,2.2c.5-1.3.8-2.2,1.1-3.2s.8-2.1,1.6-3.8a7.9,7.9,0,0,0,.4-2.3,5.9,5.9,0,0,0-.4-2.9,1.8,1.8,0,0,0-.1-.6,4.5,4.5,0,0,0-2-2.2l-.8-.4h-.4l-.4-.2h.5l-.8-.2c-.1-.1-.1-.1-.1-.2h.8l-.8.2c-.2,0-.5.1-.3.2l-2.5.3-2,.3-1.1.3h-.6l.6-.2,1.6-.3a.1.1,0,0,0,.1.1h.4l1.1-.3h.4a.1.1,0,0,0,0-.2c-.1-.1-.3-.2-.3-.4s.4-.5,1.2-.9l3-1.5c1.1-.6,2.1-1.3,4.4-2.5-.6.5.2.1,1.3-.4a17.8,17.8,0,0,1,3-1.4l-1.6,1.3c1.3-.9,2.7-1.6,2.4-1.2s1.2-1,3-2.2l2.9-1.9,2.6-2h-.7c2.2-1.6,5.2-4.2,7.6-6a31.7,31.7,0,0,0,2.7-2.7c.5-.5.8-1,1.9-2.4s1.7-.6,1.5.1-2.4,2.1-4,3.3l-2.9,2.8-2.8,2.5a34.7,34.7,0,0,1-2.9,2.5l-3.4,2.3c-.8.9,0,.4,1.3-.5A49.9,49.9,0,0,1,95,88l-.3.3.5-.4c-1.5,1.3-4.2,3.3-4.4,3.9,2.7-2,1.6-2,5.2-4.2a24.6,24.6,0,0,1,3.4-2.5l2.8-1.9c.7-.8.9-1.3,1.5-2a19.8,19.8,0,0,1,3.4-3.5l-1.4,1.9c2.2-2,2.5-2.6,2.8-3.2a13.7,13.7,0,0,1,2.5-3c-1.3,1.3.9-1.6-1.5.9l1-1.3.7-.8.7-.8,3-3.6c.4-.7,0-.2,0-.4a22.5,22.5,0,0,0-2.6,3.1,12.2,12.2,0,0,1-2.5,2.6l-1.2,2a6.8,6.8,0,0,1-2,1.5c-.3,0-.1-.3.5-1l-1.6,1.5c-.4-.1.3-.7,1.1-1.3a8.6,8.6,0,0,0,1.9-2.2l-1.4,1.5c-.5.2.3-.7,1.4-2l1.8-1.9,1.6-1.9c2.1-2.1,3.8-4.4,4.2-4.3l-1.2,1.7-1.2,1.6a18.3,18.3,0,0,0,2.3-2.9l2.1-3.3.5-.5h-.2a10.5,10.5,0,0,1,.8-1.1l.9-1.4.5-.8.4-.9,1.7-3.1h-.4v.3c-1,1.7-2.4,3.9-1.9,2.5a32,32,0,0,1,2.2-3.7l1.3-1.5c0,1.2-2,3.8-2.9,5.8,1-1,2.3-3.8,4.3-7.8a9.8,9.8,0,0,1-1.2,3.2,9.7,9.7,0,0,0-1.1,2.6,21.9,21.9,0,0,0,1.1-2c.2-.6.5-1.1.7-1.6s.8-2.1,1.5-3.7l-2.8-1.2-.2.4a1.1,1.1,0,0,1,.1-.5l3,1.4c-.3,1-1.3,3.4-1,3.4l1.2-2.2c-2.5,5.5,1-.8-.9,3.7a46.9,46.9,0,0,0,1.8-4.5l-5.2-2.3-.7,1.3,1-1.2,4.6,2.1c-.2.2-.3.3-.2-.1L123,47.1a5.3,5.3,0,0,0-.4,1.1c-.6.9-1.1,1.9-1.6,2.8s1-3.3-.1-1.4l-1.5,3.1c.2,0,1.1-1.5.8-.5s-1.1,3.2-2.1,5.3a15.7,15.7,0,0,1-2.3,3.4,85.3,85.3,0,0,1-8.4,12.5c1.8-2.4-.4-.2-1.8.9,2.3-2.6,1.9-2.9,1.5-2.9-1.3,1.5-1.8,2.9-1,2.2-2.6,2.3-1.4,2-3.8,3.8s.4-1-.2-.7-1.5,1.5-1.6,1.8-.3.7-1.9,1.9c.1-.2.4-.4.1-.3A25.1,25.1,0,0,0,96.3,82l-1.4,1.3a24.3,24.3,0,0,0-3.5,2c-1.1.6-1.9,1.1-1.9.7-4.5,2.6.9,0,.1.6a41.4,41.4,0,0,1-6.8,3.3,35.9,35.9,0,0,1,3.4-1.7H85.1c-6.2,2.6-3.5,2.6-9.6,5.1,3-1.7.9-.8,2.3-1.8-.9.5-5.5,2.8-2.6,1.6l-5.3,2.7a40.4,40.4,0,0,0-4.8,3.5,37.6,37.6,0,0,1-3.8,2.4l-2.8,1.7c-5.6,4.6-10.9,8.9-15.9,14.8l.4-.4c-4,4.5,2.1-1.6-1.9,3.1.1-.5-.6.1-1.5,1.1l-2.5,3c-4.3,5.2-6.5,9.8-9.4,15l3.4,2.2,1.7-1.7a5,5,0,0,1-1,1.5,132.1,132.1,0,0,1,9.9-9.9v.2a82.8,82.8,0,0,0,15.5-16.7,6.9,6.9,0,0,0-.5,1.3,51.1,51.1,0,0,0,4-6.2,48.8,48.8,0,0,0,2.6-5.6c2.5-4,1.2-2.9,4.4-8,.3-.3-.2.5-.3.9,1.5-2.5,2.4-4.4,3.9-7,2.9-6,3.1-7.7,7.1-14.3.8,0-2.2,4.2-1.8,4.6A24.8,24.8,0,0,1,78.9,77c-.4,1.3,0,.4-.2,1.2a35.2,35.2,0,0,0,1.7-3.4l.7-1.8a2.5,2.5,0,0,1,.3-.7c-.1-.1-.5.3-1.2,1.6.5-1.7,3.8-6.5,5.6-9.7-.6,1-2.7,4.2-2.2,2.8,2.7-4.2,3-6,4.7-9.1s-1.4,3.2-.5,2.7,1.9-1.9,1-.1c2.3-3.5,3.6-6.2,5.5-9.3h.1c2.8-4.3,5.4-9.2,8.1-12.6l-1.4,1.8a42.3,42.3,0,0,0,2.5-4.2c.1.2.8-.6,1.3-1.1l-3.7-1.3c-.1.4-.2.7-.2.1.3,1.1,0,3.7-1.2,6.2a46.5,46.5,0,0,1-3.6,5.9c-1,.8-.5-.2-.3-.6A32.6,32.6,0,0,0,98.1,43a9.9,9.9,0,0,0,1.1-2c-1.2,2.2-2.7,3.4-2.5,3a20.2,20.2,0,0,1-3.5,4.1c-1.5,1.4-3.1,2.5-3.5,3s-3.5,1.5-3.1.8c-3.6,1.9-2.6,1.7-1.7,1.6s1.7-.2-2.6,1.6,3.7-2-1.8.1l1-.4c-4.3.6-2.5,1.7-7.1,3.4-.7-.3,3.1-1.6-.2-.7s-5.6,3-9.9,4.3l.6-.4c-2.7,1-7.9,2.6-10.6,3.5l.8-.3c-5.1,1.4-2,.9-6.2,1.8l-1.1.6a39.7,39.7,0,0,0,8.6-2.6c-2.5,1.2,4.3-.7,3.1.2l.5-.4a181.5,181.5,0,0,0,24.1-7.6c2.6-1.4,4.8-2.4,7-3.7a22.6,22.6,0,0,0,6.6-5c.1-.6.3-.8.9-1.5l1.2-1.3a20.7,20.7,0,0,0,1.8-2.7c-1.5,2.5.2.6,1.2-1s.7-2.3,1-3.6a13.6,13.6,0,0,0,1-3.7l.6-5.2L102,33.1a32.4,32.4,0,0,0-3.8,5.5c-2,2.5.3-.8.5-1.4s-1.2,2.3-2,3a1.6,1.6,0,0,1,.1-.4c-2.7,4.1-4.5,6.4-7.4,10.6.3.7-2.5,4.3-3.5,6.4.2-.8-1.7,2.3-2.6,3.4l-1.1,2.6c-1,2.5-2.2,3-3.8,6.1l.6-.6c-1.2,2.2-4.9,7.8-6.4,9.9-5.3,10.5-9.7,18.5-14,26.6-1.1,2-2.3,4-3.5,5.9a69.9,69.9,0,0,1-4.3,5.6c-3.2,3.7-7.1,7.3-11.5,11.5-1.1,1.3,1-.5.3.5L35.7,132c1.6-1.3,1.2-1.2,1.1-.9l2.5-2.5c.1-.1-.1.2.2,0l2.8-2.8a23.8,23.8,0,0,1-3.9,4.2l1-1c-1.8,1.6-1.8,1.8-3.2,3s-1.2,1.2-1.6,1.3-3.4,3.2-5,5L28.3,140l2.7,1.7a23,23,0,0,1,2-3.5l1.5-2.2a10.2,10.2,0,0,1-1.2,2.5,14.2,14.2,0,0,0-1.4,3.2l1.4-2-.2-.3c.5-1,1.2-2,1.8-3v.2a3.3,3.3,0,0,1,.8-1.6c.1-.1.3-.3.1,0l1.3-2.2c-.6,1.4,1.2-1.7,1.4-1.2,2.4-3.3,3.9-5.4,5.4-7.3a38.3,38.3,0,0,1,5.7-6.2c-.5.3-.2-.2.4-1l1.1-1.3,1.3-1.2c1-.8,1.3-1,.8-.3l2-2.1,2.2-1.6,2.3-1.7,2.5-2,3-2.1v.3a27.1,27.1,0,0,1,2.5-1.9,22.2,22.2,0,0,1,3.2-2.1l-.3.5a7.6,7.6,0,0,0,2.7-1.8,9.4,9.4,0,0,1,3-1.9c-.2-.3-2.6.7-3,.6s4.8-2,3.8-1.8c3.5-1.9,2.5-1.2,2.8-1.3l2.1-1.2c2.6-1.2,1,0,.2.7,2.2-1.5,5-2.5,7.8-3.8l-1.1.7L92.5,90c1.1-.8,2.4-1.8,3.9-2.7l4.3-3-1.6,1.8c2.1-1.2.9-.9,1.3-1.3l3.2-2.6,2.2-1.5c2.1-2.3,4.3-4.5,6.4-6.6A34,34,0,0,0,117.3,67.4Zm8.8,119.8h-.6C126.7,187,127.4,186.9,126.1,187.2Zm-31.4-1c1.8-.1,2.4.2,2.5.3s0,.1.1.2a9.1,9.1,0,0,0-4.3-.2l-4.3,1.1h.9a9.3,9.3,0,0,1-3.3.5,9.8,9.8,0,0,1,2.3-.8l3.2-.8C93.9,186.2,95.5,186.4,94.7,186.2Zm68.6.9a.5.5,0,0,0-.4.2h-.1Zm-17.5,5.6-1.1-.6A1.5,1.5,0,0,0,145.8,192.7Zm-36.9-4.4a21,21,0,0,1-3.8-.6l1.3.4A8.6,8.6,0,0,0,108.9,188.3Zm-40.4-62c-.4,1.1-1.2,3.1-.2,1.4s1.4-2.4,1.5-3.3v-.2Zm50.2-66.9c.1.3-.2,1.2.2.8l-.2.2c.2-.2.4-.4.3-.1a15.4,15.4,0,0,0,1.4-2.2,1.9,1.9,0,0,1-.1-1A14.3,14.3,0,0,0,118.7,59.4Z"/><path d="M93.8,89l.9-.7Z"/><path d="M120.3,58.2a15.1,15.1,0,0,1-1.4,2A12.2,12.2,0,0,0,120.3,58.2Z"/><path d="M224.9,184.5l-1.1.2h2.3c3.7-.5,3.9-.8,4.8-1.2l-4.5.6a41.9,41.9,0,0,0-5.2.7Z"/><path d="M222.7,182.6h-2l-.5.4Z"/><path d="M180.2,184.2l3.8,1c.6,0-.2-.3-1.2-.6A7.7,7.7,0,0,0,180.2,184.2Z"/><path d="M195,192.3h2c-1.8-.3-4.1-1-4.5-.9l1.4.4C193.9,192,194,192.1,195,192.3Z"/><path d="M169.9,184.3c-1.2.5-3.9.6-4.5,1.2a15.3,15.3,0,0,1,2.5-.6A5.1,5.1,0,0,0,169.9,184.3Z"/><path d="M172.9,187.6c1.1.3,2.9-.1,5.1.2C176.2,187.6,173.6,187.3,172.9,187.6Z"/><path d="M151.9,192.5c.1-.3,1.4-.7,3-1.4l-1.4.9,4.5-2.5-3.3,1.3c-1,.4-1.7.5-1.6.3S150,192.7,151.9,192.5Z"/><path d="M167.7,188.5c1.8-.3,2.9-.2,5-.5l-1-.2-2.6.3.8-.4C167.5,187.9,170.9,187.8,167.7,188.5Z"/><path d="M143.1,190.5l.9.6a16.4,16.4,0,0,0,3.5.9,4.5,4.5,0,0,0,2.7-.3,9,9,0,0,1-4-.2Z"/><path d="M159.1,191.4v.6c2.4-1.2-.3,0,.5-.6l2.2-1.1C159.1,191.7,161.4,190.1,159.1,191.4Z"/><path d="M150.9,195.3a12.8,12.8,0,0,1-3.9.2,17,17,0,0,0,3.1.6,7,7,0,0,0,1.9-.5c.3-.1.2-.1-.1-.1S150.6,195.5,150.9,195.3Z"/><path d="M146.3,194.9l-.4-.2a19.1,19.1,0,0,1-5.3-1.6l3,1.3,1.2.3Z"/><path d="M87.5,184.9c-.5.3,2.4-.3,1.1-.1.3-.2-.6,0-1.2.1S86.4,185.1,87.5,184.9Z"/><path d="M98.9,188l-1.2-.7a4.8,4.8,0,0,0-1.8-.3,10.2,10.2,0,0,0-3.7.6,8.8,8.8,0,0,1,4.3-.4C97.8,187.5,98.9,188.2,98.9,188Z"/><path d="M91.5,187.8l.7-.2Z"/><path d="M54,175.1l.3-.5Z"/><path d="M52.7,176.7,51,178.6l-1.2,1.5a45.8,45.8,0,0,0,4.2-5C53.4,175.8,52.5,176.6,52.7,176.7Z"/><path d="M64.2,160.8c-.4,1-1.2,2.1-.8,1.9S64.7,160.3,64.2,160.8Z"/><path d="M77.1,112a7.2,7.2,0,0,0,.9-2.4c.1-.7,0-.9-.2-.6s-.4,1.7-.4,1.9A2.4,2.4,0,0,1,77.1,112Z"/><path d="M77,104.8a.6.6,0,0,0-.1-.4,6.5,6.5,0,0,0-1.6-1.7A4.8,4.8,0,0,1,77,104.8Z"/><path d="M72.9,102h0Z"/><path d="M73.5,101.9h0Z"/><path d="M73.3,101.9h0Z"/><path d="M72.8,102l-.9.2h-.7l2.7-.5H72.8Z"/><path d="M73.3,101.7c.3-.1.2-.2.4-.4l.3-.2h.6l.6-.2c6.1-3.5-1.8.1,5.2-3.9-3.4,1.7-4.2,2.4-4.8,3a3.6,3.6,0,0,1-1.3.9l-.2.2h-.3l-.5.2c.5-.1.4,0,.3.1S73.3,101.6,73.3,101.7Z"/><path d="M71.1,101.8h.3a1.7,1.7,0,0,0,1.2-.5l-.9.2c-.3.1-.7.2-.6.3Z"/><polygon points="80.6 97.6 82.6 96.7 83 96.3 80.6 97.6"/><path d="M87.7,93.5l-1.6,1.4C86.6,94.5,89.3,92.8,87.7,93.5Z"/><path d="M97.3,87.4c1.6-1.2,2.6-2.8-.6-.1l.8-.6C97.3,86.9,99.3,85.8,97.3,87.4Z"/><path d="M115.5,68.2c-.9,1.1-1.9,2.3-1.6,2.2a34,34,0,0,0,2.3-3Z"/><path d="M113.8,67.6c-1.1.7-2.1,2.7-3.8,4.4A48.5,48.5,0,0,0,113.8,67.6Z"/><path d="M118.5,65.1a30.6,30.6,0,0,1-2.1,2.9A8.6,8.6,0,0,0,118.5,65.1Z"/><path d="M121.7,60c.8-.9,0,.4.6-.3a30.1,30.1,0,0,0,2-3.4,9,9,0,0,0,1.2-2.8c-.4.6-1.2,1.2-1,.1-1.8,3.8-2.2,6.1-3.8,7.5l-1.3,3.3C121.3,61.7,120.4,62,121.7,60Z"/><path d="M115.8,66.2l1.5-1.6c-.5.2.6-1.1,1.1-2.2S116.5,65.2,115.8,66.2Z"/><path d="M118.1,56.4l-1.1,2-1.1,1.9.8-1.2C117.2,58.2,117.7,57.3,118.1,56.4Z"/><path d="M116.5,58.8h-.2l-1.6,3.1Z"/><path d="M113.8,62.7l.3-.4,1.3-2.3Z"/><path d="M108,70.2l.7-.5c.7-.9,2.3-2.6,1.9-2.6A16.4,16.4,0,0,1,108,70.2Z"/><path d="M86,93.8c.7-.5.2-.4-.3-.3l-1.1.9Z"/><path d="M80.7,95.6l-2.9,1.8c3.5-1.6,3.9-2.1,7-3.6-1.4.5-3.1,1.6-4.8,2.3Z"/><path d="M32,140.8c0-.4-.4.3.7-2l-1.6,3-2.9-1.9c1.4-1.8,3-3.4,4.8-5.4-.6.4,1.4-2,.3-.8s-2.1,2.2-3,3.4l.3-.6c-2,1.8-1.5,1.8-2.6,3.2l3.4,2.3A6.6,6.6,0,0,1,32,140.8Z"/><path d="M66.8,60.8c.4-.3-.2-.2-.7-.2C63.6,61.7,67.3,60.6,66.8,60.8Z"/><polygon points="257.3 159.2 249 176.9 247.7 157.4 268.4 47.1 278.8 45.1 257.3 159.2"/></svg>
